<svg width="25" height="24" viewBox="0 0 25 24" fill="none" xmlns="http://www.w3.org/2000/svg">
    <path fill-rule="evenodd" clip-rule="evenodd" d="M7.92595 2.38477C8.34017 2.38477 8.67595 2.72055 8.67595 3.13477V5.45644C8.67595 5.87066 8.34017 6.20644 7.92595 6.20644C7.51174 6.20644 7.17595 5.87066 7.17595 5.45644V3.13477C7.17595 2.72055 7.51174 2.38477 7.92595 2.38477Z" fill="#B1A1DA"/>
    <path fill-rule="evenodd" clip-rule="evenodd" d="M16.6057 2.38477C17.0199 2.38477 17.3557 2.72055 17.3557 3.13477V5.45644C17.3557 5.87066 17.0199 6.20644 16.6057 6.20644C16.1915 6.20644 15.8557 5.87066 15.8557 5.45644V3.13477C15.8557 2.72055 16.1915 2.38477 16.6057 2.38477Z" fill="#B1A1DA"/>
    <path fill-rule="evenodd" clip-rule="evenodd" d="M3.22571 5.08294C3.22571 4.11644 4.00921 3.33294 4.97571 3.33294H19.5357C20.5022 3.33294 21.2857 4.11644 21.2857 5.08294V19.3417C21.2857 20.3082 20.5022 21.0917 19.5357 21.0917H4.97571C4.00921 21.0917 3.22571 20.3082 3.22571 19.3417V5.08294ZM4.97571 4.83294C4.83764 4.83294 4.72571 4.94487 4.72571 5.08294V19.3417C4.72571 19.4797 4.83764 19.5917 4.97571 19.5917H19.5357C19.6738 19.5917 19.7857 19.4797 19.7857 19.3417V5.08294C19.7857 4.94487 19.6738 4.83294 19.5357 4.83294H4.97571Z" fill="#B1A1DA"/>
    <path d="M4.33337 7.5H20.3334V9.1H4.33337V7.5Z" fill="#B1A1DA"/>
</svg>
