<svg width="17" height="18" viewBox="0 0 17 18" fill="none" xmlns="http://www.w3.org/2000/svg">
<path d="M11.8999 16.5V12.2644C11.8997 12.0787 11.8631 11.8948 11.7923 11.7233C11.7214 11.5518 11.6177 11.3961 11.4871 11.265C11.3565 11.1339 11.2015 11.03 11.031 10.9593C10.8605 10.8886 10.6778 10.8524 10.4934 10.8529H5.80637C5.62199 10.8524 5.43932 10.8886 5.26881 10.9593C5.09831 11.03 4.94331 11.1339 4.81269 11.265C4.68206 11.3961 4.57837 11.5518 4.50754 11.7233C4.43671 11.8948 4.40013 12.0787 4.3999 12.2644V16.5M11.8999 0.753342V2.8529C11.8997 3.03865 11.8631 3.22253 11.7923 3.39403C11.7214 3.56553 11.6177 3.72128 11.4871 3.85238C11.3565 3.98348 11.2015 4.08735 11.031 4.15806C10.8605 4.22876 10.6778 4.26492 10.4934 4.26445H5.80637C5.62199 4.26492 5.43932 4.22876 5.26881 4.15806C5.09831 4.08735 4.94331 3.98348 4.81269 3.85238C4.68206 3.72128 4.57837 3.56553 4.50754 3.39403C4.43671 3.22253 4.40013 3.03865 4.3999 2.8529V0.500009M11.8999 0.753342C11.534 0.586394 11.1369 0.500027 10.7352 0.500009H4.3999M11.8999 0.753342C12.2034 0.892009 12.4831 1.08579 12.724 1.32667L14.8258 3.43778C15.0868 3.6994 15.2939 4.01035 15.4353 4.35279C15.5767 4.69524 15.6497 5.06244 15.6499 5.43334V13.6751C15.6497 14.0467 15.5767 14.4146 15.4352 14.7577C15.2937 15.1009 15.0865 15.4125 14.8253 15.6749C14.5641 15.9373 14.2541 16.1452 13.9131 16.2868C13.5721 16.4284 13.2067 16.5008 12.8378 16.5H3.46284C3.094 16.5009 2.72859 16.4286 2.38752 16.2871C2.04645 16.1457 1.73642 15.9378 1.47516 15.6755C1.21389 15.4133 1.00653 15.1016 0.864921 14.7585C0.723315 14.4154 0.650249 14.0476 0.649902 13.676V3.32312C0.650365 2.95161 0.723517 2.58385 0.865174 2.24085C1.00683 1.89785 1.21422 1.58634 1.47547 1.32415C1.73672 1.06195 2.04672 0.854205 2.38773 0.712792C2.72874 0.57138 3.09407 0.499074 3.46284 0.500009H4.3999" stroke="#7B43F2" stroke-width="1.3" stroke-linecap="round" stroke-linejoin="round"/>
</svg>
